<svg id="Layer_1" data-name="Layer 1" xmlns="http://www.w3.org/2000/svg" viewBox="0 0 24 24"><defs><style>.cls-1{fill:#ffda16;}.cls-2,.cls-3{fill:none;stroke:#000;stroke-miterlimit:10;}.cls-3{opacity:0;}</style></defs><title>happyshieldlogo</title><circle class="cls-1" cx="11.97" cy="11.4" r="8.9"/><path d="M12,3a8.41,8.41,0,1,1-8.4,8.41A8.42,8.42,0,0,1,12,3m0-1a9.41,9.41,0,1,0,9.41,9.41A9.4,9.4,0,0,0,12,2Z"/><path class="cls-2" d="M6.35,14.83s5.16,8.26,11.35,0"/><path class="cls-2" d="M10.74,11.45S8.56,8,5.93,11.45"/><path class="cls-2" d="M17.75,11.45S15.57,8,13,11.45"/><path class="cls-2" d="M12,5.79H22.91C24,19.39,18.12,22.49,12,22.49"/><line class="cls-3" x1="11.97" y1="11.4" x2="11.97" y2="24.75"/><path class="cls-2" d="M12,5.79H1.09C0,19.39,5.88,22.49,12,22.49"/><line class="cls-3" x1="-0.03" y1="24.03" x2="23.97" y2="0.03"/></svg>