<svg id="Layer_1" data-name="Layer 1" xmlns="http://www.w3.org/2000/svg" viewBox="0 0 28.68 28.68"><defs><style>.cls-1{fill:#fff;}.cls-1,.cls-3,.cls-4{stroke:#000;stroke-miterlimit:10;}.cls-2{fill:#ffda16;}.cls-3,.cls-4{fill:none;}.cls-4{opacity:0;}</style></defs><title>happyshieldlogo_onlyALittleBitOfSpaceAround</title><path class="cls-1" d="M14.3,8.08H3.37c-1.13,13.6,4.79,16.7,10.93,16.7h-.05c6.15,0,12.06-3.1,10.93-16.7H14.25"/><circle class="cls-2" cx="14.28" cy="13.69" r="8.9"/><path d="M14.28,5.29a8.41,8.41,0,1,1-8.41,8.4,8.41,8.41,0,0,1,8.41-8.4m0-1a9.41,9.41,0,1,0,9.4,9.4,9.4,9.4,0,0,0-9.4-9.4Z"/><path class="cls-3" d="M8.66,17.12s5.16,8.26,11.35,0"/><path class="cls-3" d="M13.05,13.75s-2.19-3.5-4.81,0"/><path class="cls-3" d="M20.06,13.75s-2.19-3.5-4.81,0"/><path class="cls-3" d="M14.28,8.08H25.21c1.13,13.6-4.79,16.7-10.93,16.7"/><line class="cls-4" x1="14.28" y1="13.69" x2="14.28" y2="27.04"/><path class="cls-3" d="M14.33,8.08H3.4c-1.13,13.6,4.79,16.7,10.93,16.7"/><line class="cls-4" x1="2.28" y1="26.32" x2="26.28" y2="2.32"/></svg>