<svg id="Layer_1" data-name="Layer 1" xmlns="http://www.w3.org/2000/svg" viewBox="0 0 33.59 33.59"><defs><style>.cls-1{fill:#fff;}.cls-1,.cls-3,.cls-4{stroke:#000;stroke-miterlimit:10;}.cls-2{fill:#ffda16;}.cls-3,.cls-4{fill:none;}.cls-4{opacity:0;}</style></defs><title>happyshieldlogo_moreSpaceAround</title><path class="cls-1" d="M16.79,10.58H5.85C4.73,24.19,10.64,27.29,16.79,27.29h-.06c6.15,0,12.06-3.1,10.93-16.71H16.73"/><circle class="cls-2" cx="16.76" cy="16.19" r="8.9"/><path d="M16.76,7.79a8.41,8.41,0,1,1-8.41,8.4,8.41,8.41,0,0,1,8.41-8.4m0-1a9.41,9.41,0,1,0,9.4,9.4,9.4,9.4,0,0,0-9.4-9.4Z"/><path class="cls-3" d="M11.14,19.63s5.16,8.25,11.35,0"/><path class="cls-3" d="M15.53,16.25s-2.19-3.5-4.81,0"/><path class="cls-3" d="M22.54,16.25s-2.19-3.5-4.81,0"/><path class="cls-3" d="M16.76,10.58H27.69c1.13,13.61-4.79,16.71-10.93,16.71"/><line class="cls-4" x1="16.76" y1="16.19" x2="16.76" y2="29.54"/><path class="cls-3" d="M16.81,10.58H5.88C4.75,24.19,10.67,27.29,16.81,27.29"/><line class="cls-4" x1="4.76" y1="28.82" x2="28.76" y2="4.82"/></svg>